<svg id="Слой_1" data-name="Слой 1" xmlns="http://www.w3.org/2000/svg" viewBox="0 0 500 500"><defs><style>.cls-1{fill:#fff;}</style></defs><path class="cls-1" d="M312.86,178.54a149.26,149.26,0,0,0-2.31-20.92l-1-5.41H190.48l-1,5.41a149.26,149.26,0,0,0-2.31,20.92H155.8l1.74,8c.38,1.75,9.43,41.88,40.61,53.15a99.54,99.54,0,0,0,6.41,12.13c6.74,10.82,14.84,18.88,23.77,23.83v33.67h-9.61a17.4,17.4,0,0,0-17.38,17.38v21.08h97.34V326.71a17.4,17.4,0,0,0-17.37-17.38H271.7V275.66c8.93-5,17-13,23.77-23.83a99.63,99.63,0,0,0,6.39-12.09c31.24-11.26,40.24-51.45,40.62-53.2l1.72-8Zm-140,13.21h14.36a143.38,143.38,0,0,0,4.32,29C181.61,212.46,175.81,199.89,172.88,191.75ZM281.31,322.54a4.17,4.17,0,0,1,4.17,4.17v7.88H214.55v-7.88a4.17,4.17,0,0,1,4.17-4.17h62.59ZM258.5,309.33h-17V280.58a42.78,42.78,0,0,0,17,0ZM250,268.23c-27,0-49.76-38.39-49.76-83.83a135.49,135.49,0,0,1,1.34-19h96.85a135.49,135.49,0,0,1,1.34,19C299.78,229.84,277,268.23,250,268.23Zm58.45-47.39a143.77,143.77,0,0,0,4.33-29.09h14.35C324.23,199.9,318.43,212.5,308.46,220.84Z"/></svg>